# Blender v2.79 (sub 0) OBJ File: 'hair2222part1.blend'
# www.blender.org
mtllib hair12201.mtl
o 5_+Hair12.Hair12_1_0_0
v 0.011759 0.044504 0.003546
v 0.013948 0.070049 -0.018594
v 0.001193 0.066215 -0.014202
v -0.000603 0.047422 0.008142
v -0.003806 0.087965 -0.020515
v 0.010718 0.089700 -0.023610
v 0.029490 0.064073 -0.045293
v 0.031539 0.031714 -0.021831
v 0.016904 0.022860 -0.039847
v 0.021116 0.060435 -0.059402
v -0.010154 0.019832 -0.043139
v 0.017492 0.043229 0.000180
v 0.028998 0.087676 -0.053201
v 0.017611 0.085243 -0.069193
v 0.003572 0.080037 -0.094953
v 0.016564 0.081795 -0.085552
v 0.010161 0.055188 -0.089861
v 0.020881 0.056401 -0.067590
v 0.020797 0.054111 -0.078209
v 0.026836 0.012708 -0.047738
v 0.033376 0.019972 -0.042812
v 0.029688 -0.008191 -0.021451
v 0.039057 -0.005671 -0.016764
v 0.032575 0.027549 -0.034887
v 0.028708 -0.040724 0.005440
v 0.035766 -0.039829 0.007503
v 0.038665 -0.002252 -0.010826
v 0.021764 0.024798 -0.033830
v 0.026723 -0.002195 -0.011037
v 0.016196 0.015656 -0.042681
v -0.000564 0.052326 -0.085128
v 0.022741 -0.006205 -0.018008
v 0.035663 -0.038073 0.010079
v 0.021903 -0.076320 0.026562
v 0.027469 -0.037586 0.009923
v 0.025568 -0.039520 0.006845
v -0.010261 -0.001327 -0.019683
v 0.019476 0.001619 -0.019599
v -0.013140 -0.022062 0.000133
v 0.019127 -0.017376 -0.000430
v -0.018618 -0.030476 0.007024
v 0.010690 -0.034493 0.009997
v 0.026848 -0.008784 0.012577
v 0.015271 -0.029070 0.024830
v 0.003825 0.001602 0.034275
v 0.000470 -0.019548 0.039840
v -0.009705 0.008556 0.037369
v -0.017216 -0.011665 0.040139
v 0.031403 0.010625 -0.003502
v 0.013910 0.021938 0.018262
v -0.020232 0.004396 0.015809
v -0.017734 0.017220 -0.001519
v -0.029842 -0.014826 0.022529
v 0.000830 -0.046528 0.032552
v -0.007719 -0.037581 0.043757
v -0.022733 -0.030894 0.043859
v -0.034633 -0.033599 0.030095
v -0.000254 -0.050140 0.020442
v -0.022431 -0.041831 0.013858
v -0.005140 -0.058751 0.036269
v -0.012411 -0.053420 0.044474
v -0.008174 -0.070275 0.039894
v -0.014168 -0.067699 0.045427
v -0.011720 -0.105242 0.055474
v -0.026488 -0.065552 0.045741
v -0.026590 -0.049435 0.044736
v -0.009355 -0.072992 0.030650
v -0.006130 -0.062134 0.025575
v -0.025021 -0.071162 0.028575
v -0.025443 -0.057651 0.021413
v -0.034501 -0.067369 0.038848
v -0.036730 -0.051876 0.034789
v -0.001223 0.005873 0.038210
v 0.007752 0.024424 0.023306
v -0.003243 0.029588 0.027650
v -0.010041 0.011537 0.040779
v -0.020243 0.011043 0.023844
v -0.017818 0.025067 0.009035
v -0.035473 -0.018027 0.032535
v -0.034279 -0.020662 0.025500
v -0.064044 -0.044162 0.041640
v -0.034399 -0.022259 0.047006
v -0.028732 -0.025230 0.049136
v -0.027545 -0.030791 0.045428
v -0.020636 0.031495 -0.019727
v -0.019555 0.037466 -0.011415
v -0.023517 0.059870 -0.046643
v -0.026762 0.085315 -0.058501
v -0.009105 0.082680 -0.087350
v -0.026913 -0.030323 0.037014
vt 0.649253 0.808447
vt 0.658702 0.776388
vt 0.642123 0.777691
vt 0.636113 0.809374
vt 0.645338 0.751429
vt 0.659265 0.754812
vt 0.690149 0.776985
vt 0.680230 0.807921
vt 0.698846 0.808340
vt 0.708721 0.774824
vt 0.714595 0.812035
vt 0.655662 0.807926
vt 0.685256 0.756579
vt 0.695686 0.756357
vt 0.700603 0.754240
vt 0.707858 0.755345
vt 0.704609 0.753006
vt 0.708536 0.767605
vt 0.707039 0.761856
vt 0.726955 0.745552
vt 0.728536 0.753227
vt 0.742314 0.734852
vt 0.742571 0.740469
vt 0.730035 0.760351
vt 0.758425 0.718664
vt 0.759991 0.723557
vt 0.742765 0.744456
vt 0.732259 0.766438
vt 0.745828 0.754137
vt 0.734665 0.773218
vt 0.721746 0.786694
vt 0.747820 0.761515
vt 0.761031 0.725985
vt 0.778094 0.700173
vt 0.763820 0.730877
vt 0.765799 0.734207
vt 0.708731 0.829613
vt 0.690746 0.826061
vt 0.706622 0.847599
vt 0.685134 0.842312
vt 0.707579 0.856121
vt 0.685903 0.855770
vt 0.673205 0.842200
vt 0.674266 0.858309
vt 0.648183 0.852688
vt 0.658537 0.865586
vt 0.642904 0.867472
vt 0.656723 0.876011
vt 0.675423 0.826727
vt 0.652146 0.830765
vt 0.726503 0.836382
vt 0.722079 0.828198
vt 0.724440 0.852803
vt 0.636798 0.884541
vt 0.644004 0.889996
vt 0.677683 0.874346
vt 0.665544 0.878395
vt 0.658652 0.885647
vt 0.650130 0.895535
vt 0.687921 0.870865
vt 0.706999 0.866085
vt 0.722103 0.867716
vt 0.681824 0.885138
vt 0.672615 0.888735
vt 0.685916 0.894919
vt 0.679743 0.898133
vt 0.697571 0.921524
vt 0.671235 0.902834
vt 0.663046 0.894352
vt 0.692760 0.891499
vt 0.690496 0.881787
vt 0.704253 0.889220
vt 0.705634 0.878710
vt 0.714345 0.891567
vt 0.718513 0.880877
vt 0.665571 0.908289
vt 0.656582 0.902230
vt 0.641534 0.852196
vt 0.642707 0.833000
vt 0.632057 0.834149
vt 0.632658 0.851416
vt 0.616071 0.848133
vt 0.611745 0.829384
vt 0.606507 0.849652
vt 0.599186 0.828970
vt 0.611446 0.878392
vt 0.604718 0.877047
vt 0.606527 0.913571
vt 0.622806 0.885422
vt 0.628537 0.886082
vt 0.632331 0.890480
vt 0.595669 0.798809
vt 0.607321 0.801504
vt 0.602439 0.755158
vt 0.609885 0.729210
vt 0.737130 0.784014
vt 0.733318 0.806193
vt 0.743722 0.798996
vt 0.723535 0.820292
vt 0.719850 0.980049
vt 0.719131 0.979532
vt 0.718257 0.980406
vt 0.718296 0.980734
vt 0.717190 0.980396
vt 0.717208 0.980257
vt 0.717102 0.980364
vt 0.717093 0.980356
vt 0.717165 0.980377
vt 0.717163 0.980381
vt 0.717172 0.980370
vt 0.699535 0.988012
vt 0.699493 0.988014
vt 0.699547 0.988035
vt 0.699427 0.988037
vt 0.700031 0.988510
vt 0.698684 0.988205
vt 0.700837 0.988171
vn 0.4100 0.6068 0.6809
vn 0.7458 0.3662 0.5565
vn -0.5937 0.4788 0.6467
vn -0.4335 0.6839 0.5868
vn -0.1790 -0.0675 0.9815
vn 0.5845 0.0900 0.8064
vn 0.9993 0.0357 -0.0050
vn 0.9988 0.0420 0.0236
vn 0.5522 -0.5721 -0.6065
vn 0.9985 -0.0243 0.0491
vn -0.4357 -0.6386 -0.6343
vn 0.8185 0.3583 0.4491
vn 0.9809 -0.0908 -0.1720
vn 0.8955 -0.1979 -0.3985
vn 0.7533 -0.0724 -0.6537
vn 0.1418 -0.4672 -0.8727
vn -0.0021 -0.2777 -0.9607
vn 0.9880 0.1500 0.0378
vn 0.8463 -0.1389 -0.5143
vn 0.2180 -0.6852 -0.6949
vn 0.9090 -0.1307 -0.3959
vn 0.1293 -0.6886 -0.7135
vn 0.8648 -0.2906 -0.4096
vn 0.7754 0.5215 0.3562
vn 0.0675 -0.5965 -0.7997
vn 0.7160 -0.4712 -0.5151
vn 0.5200 0.5149 0.6815
vn -0.6268 0.4343 0.6469
vn -0.4452 0.4865 0.7517
vn -0.9699 -0.2284 0.0841
vn -0.6113 -0.5391 -0.5794
vn -0.9662 -0.2514 -0.0563
vn 0.4258 0.3846 0.8190
vn 0.2343 -0.2695 0.9341
vn -0.3705 0.4477 0.8138
vn -0.9736 -0.1554 -0.1673
vn -0.4832 -0.6176 -0.6205
vn 0.4450 -0.6288 -0.6376
vn -0.4546 -0.4544 -0.7661
vn 0.4809 -0.6563 -0.5813
vn -0.4578 -0.2974 -0.8378
vn 0.4657 -0.6726 -0.5751
vn 0.9242 -0.0839 0.3726
vn 0.8419 -0.2568 0.4746
vn 0.7058 0.0616 0.7058
vn 0.5134 0.0351 0.8575
vn 0.8850 -0.3981 -0.2414
vn -0.4669 0.3624 0.8066
vn 0.9864 -0.0053 0.1646
vn 0.7733 0.2764 0.5706
vn -0.9124 0.0088 -0.4093
vn -0.9747 -0.1527 -0.1630
vn -0.9559 0.2825 -0.0799
vn 0.8073 -0.3541 0.4721
vn 0.3902 -0.0341 0.9201
vn -0.4229 0.2525 0.8703
vn -0.9889 0.1484 -0.0051
vn 0.4374 -0.6390 -0.6327
vn -0.4376 -0.3332 -0.8352
vn 0.8760 -0.2375 0.4197
vn 0.3369 -0.0191 0.9414
vn 0.9439 -0.0516 0.3261
vn 0.3350 0.1613 0.9283
vn -0.2118 -0.9741 -0.0793
vn -0.3736 0.0711 0.9249
vn -0.4178 0.1229 0.9002
vn 0.4269 -0.5409 -0.7247
vn 0.4370 -0.5146 -0.7377
vn -0.4130 -0.5476 -0.7278
vn -0.4320 -0.3417 -0.8346
vn -0.9403 -0.3403 0.0074
vn -0.9990 -0.0295 -0.0350
vn 0.4726 0.1117 0.8742
vn 0.5532 0.4431 0.7054
vn -0.2850 0.6785 0.6771
vn -0.3880 0.5466 0.7421
vn -0.8303 0.5017 0.2427
vn -0.8399 0.4428 0.3139
vn -0.7940 0.5916 0.1399
vn 0.4120 -0.4248 -0.8061
vn -0.6679 -0.4882 -0.5617
vn -0.5160 0.5317 0.6716
vn 0.2938 -0.0911 0.9515
vn 0.5838 -0.8021 0.1253
vn -0.9350 -0.2680 -0.2322
vn -0.8083 0.4571 0.3711
vn -0.9908 -0.1220 -0.0589
vn -0.9779 -0.1850 -0.0972
vn -0.7700 -0.3291 -0.5467
vn 0.4820 -0.5669 -0.6680
usemtl 5_+Hair12.Hair12_1_0_0
s 1
f 1/1/1 2/2/2 3/3/3
f 1/1/1 3/3/3 4/4/4
f 2/2/2 5/5/5 3/3/3
f 2/2/2 6/6/6 5/5/5
f 7/7/7 6/6/6 2/2/2
f 8/8/8 7/7/7 2/2/2
f 9/9/9 7/7/7 8/8/8
f 9/9/9 10/10/10 7/7/7
f 10/10/10 9/9/9 11/11/11
f 8/8/8 2/2/2 12/12/12
f 2/2/2 1/1/1 12/12/12
f 10/10/10 13/13/13 7/7/7
f 7/7/7 13/13/13 6/6/6
f 10/10/10 14/14/14 13/13/13
f 16/15/15 17/16/16 15/17/17
f 18/18/18 19/19/19 16/15/15
f 16/15/15 19/19/19 17/16/16
f 19/19/19 20/20/20 17/16/16
f 19/19/19 21/21/21 20/20/20
f 21/21/21 19/19/19 18/18/18
f 21/21/21 22/22/22 20/20/20
f 21/21/21 23/23/23 22/22/22
f 10/10/10 24/24/24 18/18/18
f 21/21/21 18/18/18 24/24/24
f 23/23/23 21/21/21 24/24/24
f 23/23/23 25/25/25 22/22/22
f 23/23/23 26/26/26 25/25/25
f 26/26/26 23/23/23 27/27/27
f 23/23/23 24/24/24 27/27/27
f 28/28/28 27/27/27 24/24/24
f 10/10/10 28/28/28 24/24/24
f 28/28/28 29/29/29 27/27/27
f 30/30/30 29/29/29 28/28/28
f 31/31/31 28/28/28 10/10/10
f 31/31/31 30/30/30 28/28/28
f 10/10/10 11/11/11 31/31/31
f 30/30/30 32/32/32 29/29/29
f 29/29/29 33/33/33 27/27/27
f 26/26/26 27/27/27 33/33/33
f 26/26/26 34/34/34 25/25/25
f 34/34/34 26/26/26 33/33/33
f 29/29/29 35/35/35 33/33/33
f 32/32/32 35/35/35 29/29/29
f 35/35/35 34/34/34 33/33/33
f 36/36/36 34/34/34 35/35/35
f 32/32/32 36/36/36 35/35/35
f 9/9/9 37/37/37 11/11/11
f 38/38/38 9/9/9 8/8/8
f 9/9/9 38/38/38 37/37/37
f 38/38/38 39/39/39 37/37/37
f 38/38/38 40/40/40 39/39/39
f 40/40/40 41/41/41 39/39/39
f 40/40/40 42/42/42 41/41/41
f 42/42/42 40/40/40 43/43/43
f 42/42/42 43/43/43 44/44/44
f 44/44/44 43/43/43 45/45/45
f 44/44/44 45/45/45 46/46/46
f 46/46/46 45/45/45 47/47/47
f 46/46/46 47/47/47 48/48/48
f 49/49/49 8/8/8 12/12/12
f 40/40/40 38/38/38 49/49/49
f 40/40/40 49/49/49 43/43/43
f 38/38/38 8/8/8 49/49/49
f 49/49/49 12/12/12 50/50/50
f 43/43/43 50/50/50 45/45/45
f 43/43/43 49/49/49 50/50/50
f 37/37/37 39/39/39 51/51/51
f 37/37/37 51/51/51 52/52/52
f 11/11/11 37/37/37 52/52/52
f 39/39/39 41/41/41 53/53/53
f 39/39/39 53/53/53 51/51/51
f 48/48/48 47/47/47 51/54/51
f 48/48/48 51/54/51 53/55/53
f 54/56/54 44/44/44 46/46/46
f 54/56/54 46/46/46 55/57/55
f 55/57/55 46/46/46 48/48/48
f 55/57/55 48/48/48 56/58/56
f 57/59/57 48/48/48 53/55/53
f 57/59/57 56/58/56 48/48/48
f 58/60/58 42/42/42 44/44/44
f 58/60/58 44/44/44 54/56/54
f 42/42/42 58/60/58 59/61/59
f 42/42/42 59/61/59 41/41/41
f 41/41/41 59/61/59 57/62/57
f 41/41/41 57/62/57 53/53/53
f 60/63/60 54/56/54 55/57/55
f 60/63/60 55/57/55 61/64/61
f 61/64/61 55/57/55 56/58/56
f 62/65/62 60/63/60 61/64/61
f 62/65/62 61/64/61 63/66/63
f 64/67/64 62/65/62 63/66/63
f 64/67/64 63/66/63 65/68/65
f 63/66/63 61/64/61 66/69/66
f 61/64/61 56/58/56 66/69/66
f 66/69/66 56/58/56 57/59/57
f 63/66/63 66/69/66 65/68/65
f 64/67/64 67/70/67 62/65/62
f 67/70/67 60/63/60 62/65/62
f 68/71/68 58/60/58 54/56/54
f 67/70/67 68/71/68 60/63/60
f 68/71/68 54/56/54 60/63/60
f 68/71/68 67/70/67 69/72/69
f 67/70/67 64/67/64 69/72/69
f 68/71/68 69/72/69 70/73/70
f 58/60/58 70/73/70 59/61/59
f 58/60/58 68/71/68 70/73/70
f 69/72/69 64/67/64 71/74/71
f 70/73/70 69/72/69 71/74/71
f 70/73/70 71/74/71 72/75/72
f 59/61/59 70/73/70 72/75/72
f 59/61/59 72/75/72 57/62/57
f 64/67/64 65/68/65 71/76/71
f 71/76/71 65/68/65 66/69/66
f 66/69/66 57/59/57 72/77/72
f 71/76/71 66/69/66 72/77/72
f 50/50/50 73/78/73 45/45/45
f 50/50/50 74/79/74 73/78/73
f 12/12/12 1/1/1 74/79/74
f 74/79/74 1/1/1 4/4/4
f 12/12/12 74/79/74 50/50/50
f 74/79/74 4/4/4 75/80/75
f 73/78/73 74/79/74 75/80/75
f 73/78/73 75/80/75 76/81/76
f 77/82/77 76/81/76 75/80/75
f 77/82/77 75/80/75 78/83/78
f 51/84/51 77/82/77 78/83/78
f 51/84/51 78/83/78 52/85/52
f 51/84/51 79/86/79 77/82/77
f 51/84/51 80/87/80 79/86/79
f 80/87/80 81/88/81 79/86/79
f 77/82/77 79/86/79 82/89/82
f 79/86/79 81/88/81 82/89/82
f 77/82/77 82/89/82 76/81/76
f 76/81/76 83/90/83 73/78/73
f 82/89/82 81/88/81 83/90/83
f 76/81/76 82/89/82 83/90/83
f 83/90/83 81/88/81 84/91/84
f 73/78/73 84/91/84 45/45/45
f 73/78/73 83/90/83 84/91/84
f 78/83/78 85/92/85 52/85/52
f 78/83/78 86/93/86 85/92/85
f 75/80/75 4/4/4 86/93/86
f 75/80/75 86/93/86 78/83/78
f 86/93/86 4/4/4 3/3/3
f 85/92/85 86/93/86 87/94/87
f 87/94/87 3/3/3 5/5/5
f 86/93/86 3/3/3 87/94/87
f 87/94/87 5/5/5 88/95/88
f 89/96/89 31/31/31 87/97/87
f 89/96/89 87/97/87 88/98/88
f 31/31/31 11/11/11 85/99/85
f 11/11/11 52/52/52 85/99/85
f 31/31/31 85/99/85 87/97/87
f 89/100/89 15/101/17 17/102/16
f 89/100/89 17/102/16 31/103/31
f 17/102/16 30/104/30 31/103/31
f 17/102/16 20/105/20 30/104/30
f 20/105/20 32/106/32 30/104/30
f 20/105/20 22/107/22 32/106/32
f 22/107/22 36/108/36 32/106/32
f 22/107/22 25/109/25 36/108/36
f 25/109/25 34/110/34 36/108/36
f 84/111/84 81/112/81 90/113/90
f 90/113/90 81/112/81 80/114/80
f 47/115/47 90/113/90 80/114/80
f 47/115/47 80/114/80 51/116/51
f 45/117/45 84/111/84 90/113/90
f 45/117/45 90/113/90 47/115/47
