# Blender v2.79 (sub 0) OBJ File: 'hair2222part1.blend'
# www.blender.org
mtllib hair1221.mtl
o 5_+Hair12.Hair12_1_0_0
v -0.092204 0.039726 0.062370
v -0.079841 0.042644 0.066966
v -0.081580 0.062229 0.043985
v -0.094392 0.065272 0.040230
v -0.076638 0.083187 0.038309
v -0.091163 0.084922 0.035213
v -0.109934 0.059295 0.013531
v -0.111983 0.026936 0.036993
v -0.097349 0.018082 0.018977
v -0.101561 0.055657 -0.000578
v -0.070290 0.015054 0.015684
v -0.079880 0.047548 -0.026305
v -0.097936 0.038451 0.059004
v -0.109442 0.082898 0.005622
v -0.098055 0.080465 -0.010369
v -0.084017 0.075259 -0.036129
v -0.097008 0.077017 -0.026728
v -0.090606 0.050411 -0.031038
v -0.101241 0.049334 -0.019385
v -0.101326 0.051623 -0.008767
v -0.099814 0.080566 -0.018989
v -0.099572 -0.022154 0.058394
v -0.067305 -0.026840 0.058956
v -0.061826 -0.035254 0.065847
v -0.091134 -0.039270 0.068821
v -0.107292 -0.013562 0.071400
v -0.095715 -0.033847 0.083653
v -0.084269 -0.003176 0.093099
v -0.080914 -0.024326 0.098663
v -0.070739 0.003779 0.096192
v -0.063229 -0.016442 0.098963
v -0.099920 -0.003159 0.039225
v -0.070183 -0.006105 0.039141
v -0.111847 0.005848 0.055322
v -0.094354 0.017161 0.077085
v -0.060212 -0.000381 0.074633
v -0.062711 0.012443 0.057305
v -0.050603 -0.019603 0.081352
v -0.081274 -0.051305 0.091376
v -0.072725 -0.042359 0.102581
v -0.057712 -0.035671 0.102683
v -0.045811 -0.038376 0.088918
v -0.075305 -0.063529 0.095093
v -0.068034 -0.058197 0.103298
v -0.072270 -0.075053 0.098717
v -0.066276 -0.072477 0.104251
v -0.068725 -0.110020 0.114298
v -0.053956 -0.070329 0.104565
v -0.053854 -0.054213 0.103559
v -0.071089 -0.077770 0.089473
v -0.074314 -0.066912 0.084399
v -0.055423 -0.075940 0.087399
v -0.055002 -0.062428 0.080237
v -0.045943 -0.072147 0.097672
v -0.043714 -0.056654 0.093612
v -0.080190 -0.054918 0.079266
v -0.058014 -0.046609 0.072682
v -0.079221 0.001096 0.097033
v -0.070403 0.006760 0.099603
v -0.077202 0.024811 0.086474
v -0.088196 0.019646 0.082129
v -0.060201 0.006266 0.082667
v -0.062626 0.020290 0.067859
v -0.044971 -0.022805 0.091359
v -0.046165 -0.025440 0.084323
v -0.016400 -0.048940 0.100464
v -0.046045 -0.027037 0.105830
v -0.051713 -0.030007 0.107960
v -0.059808 0.026717 0.039097
v -0.056927 0.055092 0.012181
v -0.071339 0.077902 -0.028526
v -0.053683 0.080537 0.000322
v -0.060890 0.032688 0.047409
v -0.096640 0.010879 0.016143
v -0.102208 0.020020 0.024994
v -0.107168 -0.006973 0.047787
v -0.103185 -0.010983 0.040816
v -0.119110 -0.007029 0.047998
v -0.113019 0.022771 0.023937
v -0.107913 -0.042363 0.068747
v -0.106013 -0.044298 0.065669
v -0.102348 -0.081098 0.085386
v -0.116108 -0.042850 0.068903
v -0.116210 -0.044606 0.066327
v -0.119502 -0.010449 0.042060
v -0.109153 -0.045501 0.064263
v -0.110132 -0.012969 0.037373
v -0.113820 0.015194 0.016011
v -0.107280 0.007930 0.011085
v -0.052899 -0.035568 0.104252
v -0.053531 -0.035100 0.095838
vt 0.527454 0.772593
vt 0.541016 0.772007
vt 0.531421 0.741663
vt 0.514577 0.739928
vt 0.528244 0.720898
vt 0.514407 0.721256
vt 0.478213 0.736719
vt 0.491838 0.772089
vt 0.469105 0.771830
vt 0.456415 0.733935
vt 0.448147 0.775091
vt 0.441917 0.737814
vt 0.520368 0.772291
vt 0.479812 0.716269
vt 0.463241 0.710839
vt 0.450108 0.708079
vt 0.436367 0.706545
vt 0.443901 0.718642
vt 0.447626 0.725708
vt 0.450910 0.728995
vt 0.457159 0.707690
vt 0.487954 0.819697
vt 0.459769 0.834063
vt 0.460280 0.847061
vt 0.488393 0.839434
vt 0.503382 0.817230
vt 0.503974 0.839901
vt 0.537132 0.826491
vt 0.525702 0.845801
vt 0.543799 0.841755
vt 0.537501 0.857027
vt 0.479371 0.796620
vt 0.453638 0.804653
vt 0.498970 0.795883
vt 0.528350 0.798720
vt 0.427175 0.830450
vt 0.427575 0.808239
vt 0.435899 0.851511
vt 0.554962 0.861328
vt 0.545926 0.873354
vt 0.501951 0.862892
vt 0.518181 0.865143
vt 0.530816 0.871649
vt 0.539888 0.882128
vt 0.499814 0.877403
vt 0.512400 0.878849
vt 0.497438 0.890423
vt 0.505954 0.892376
vt 0.490865 0.925745
vt 0.517738 0.895310
vt 0.526365 0.881996
vt 0.488055 0.888327
vt 0.488000 0.875885
vt 0.473508 0.889040
vt 0.468414 0.876858
vt 0.462259 0.895056
vt 0.453704 0.884211
vt 0.526037 0.900233
vt 0.536238 0.890461
vt 0.488523 0.860932
vt 0.463395 0.860756
vt 0.444398 0.869702
vt 0.545645 0.824631
vt 0.555401 0.821438
vt 0.548560 0.798651
vt 0.536244 0.799912
vt 0.575089 0.812859
vt 0.570468 0.785494
vt 0.589317 0.812128
vt 0.585824 0.778219
vt 0.586462 0.857006
vt 0.594964 0.856915
vt 0.584374 0.900946
vt 0.571006 0.862967
vt 0.563873 0.862458
vt 0.427282 0.785134
vt 0.426150 0.754648
vt 0.425957 0.728489
vt 0.416165 0.743933
vt 0.560643 0.721607
vt 0.554000 0.706455
vt 0.566448 0.757571
vt 0.575107 0.752011
vt 0.692719 0.988798
vt 0.694500 0.989351
vt 0.693445 0.988426
vt 0.694368 0.989672
vt 0.697274 0.991592
vt 0.433079 0.726858
vt 0.430805 0.730286
vt 0.419073 0.718249
vt 0.416602 0.721535
vt 0.425289 0.711489
vt 0.435618 0.723772
vt 0.414400 0.692520
vt 0.412429 0.692589
vt 0.413975 0.672629
vt 0.418180 0.692003
vt 0.419492 0.691406
vt 0.430843 0.708277
vt 0.422594 0.689726
vt 0.433778 0.707134
vt 0.438548 0.721052
vt 0.441430 0.716252
vt 0.696318 0.991362
vt 0.695559 0.990921
vt 0.695523 0.990833
vt 0.695279 0.990973
vt 0.695684 0.990620
vt 0.695636 0.990791
vt 0.720284 0.995033
vt 0.720258 0.995060
vt 0.720279 0.995022
vt 0.720417 0.995049
vt 0.558239 0.866949
vt 0.719732 0.995338
vt 0.721564 0.994987
vt 0.718705 0.994888
vn -0.4098 0.6067 0.6812
vn 0.4350 0.6822 0.5877
vn 0.5964 0.4728 0.6487
vn -0.7452 0.3686 0.5557
vn 0.2453 -0.1374 0.9597
vn -0.4728 0.1459 0.8690
vn -0.9994 0.0357 -0.0050
vn -0.9988 0.0419 0.0235
vn -0.5522 -0.5721 -0.6065
vn -0.8000 -0.4151 -0.4332
vn 0.4357 -0.6386 -0.6342
vn 0.6113 -0.5391 -0.5794
vn -0.8185 0.3583 0.4491
vn -0.9842 -0.1097 -0.1393
vn -0.9998 -0.0179 0.0059
vn -0.8051 -0.0843 -0.5871
vn -0.0105 -0.2583 -0.9660
vn -0.1418 -0.4672 -0.8727
vn -0.8463 -0.1389 -0.5143
vn -0.9630 0.2688 0.0210
vn -0.9940 0.0333 -0.1043
vn -0.4809 -0.6563 -0.5813
vn 0.4545 -0.4544 -0.7661
vn 0.4578 -0.2974 -0.8378
vn -0.4657 -0.6726 -0.5751
vn -0.9242 -0.0839 0.3726
vn -0.8419 -0.2568 0.4746
vn -0.7057 0.0616 0.7058
vn -0.5134 0.0351 0.8575
vn -0.8843 -0.3990 -0.2426
vn 0.4669 0.3624 0.8066
vn -0.4450 -0.6288 -0.6376
vn 0.4832 -0.6176 -0.6205
vn -0.9864 -0.0053 0.1646
vn -0.7733 0.2764 0.5706
vn 0.9124 0.0088 -0.4092
vn 0.9747 -0.1527 -0.1630
vn 0.9559 0.2825 -0.0799
vn -0.8073 -0.3541 0.4721
vn -0.3903 -0.0341 0.9201
vn 0.4229 0.2525 0.8703
vn 0.9889 0.1483 -0.0051
vn -0.8760 -0.2375 0.4197
vn -0.3369 -0.0191 0.9414
vn -0.9439 -0.0516 0.3261
vn -0.3350 0.1613 0.9283
vn 0.2118 -0.9741 -0.0793
vn 0.3736 0.0711 0.9249
vn 0.4178 0.1230 0.9002
vn -0.4269 -0.5409 -0.7247
vn -0.4370 -0.5146 -0.7377
vn 0.4130 -0.5476 -0.7278
vn 0.4320 -0.3417 -0.8346
vn 0.9403 -0.3403 0.0074
vn 0.9989 -0.0295 -0.0350
vn -0.4374 -0.6391 -0.6327
vn 0.4375 -0.3332 -0.8352
vn -0.4726 0.1116 0.8742
vn 0.3880 0.5466 0.7421
vn 0.2850 0.6785 0.6771
vn -0.5532 0.4431 0.7054
vn 0.8303 0.5017 0.2427
vn 0.8399 0.4428 0.3138
vn 0.7940 0.5916 0.1399
vn -0.4119 -0.4249 -0.8061
vn 0.6679 -0.4882 -0.5618
vn 0.5160 0.5317 0.6716
vn -0.2938 -0.0911 0.9515
vn 0.9350 -0.2680 -0.2322
vn 0.9908 -0.1212 -0.0609
vn 0.6376 -0.3244 -0.6987
vn 0.9789 -0.1848 -0.0874
vn 0.8091 0.4551 0.3718
vn 0.9700 -0.2283 0.0840
vn 0.6268 0.4343 0.6469
vn 0.4452 0.4873 0.7512
vn 0.9662 -0.2514 -0.0563
vn -0.5200 0.5155 0.6811
vn -0.7754 0.5215 0.3562
vn 0.3705 0.4477 0.8138
vn 0.9736 -0.1554 -0.1673
vn -0.2343 -0.2694 0.9341
vn -0.4258 0.3846 0.8190
vn -0.7160 -0.4712 -0.5151
vn -0.8648 -0.2906 -0.4096
vn -0.0675 -0.5965 -0.7997
vn -0.1293 -0.6886 -0.7135
vn -0.9090 -0.1307 -0.3959
vn -0.2180 -0.6852 -0.6949
vn -0.5839 -0.8021 0.1253
vn -0.4820 -0.5669 -0.6680
usemtl 5_+Hair12.Hair12_1_0_0
s 1
f 1/1/1 2/2/2 3/3/3
f 1/1/1 3/3/3 4/4/4
f 4/4/4 3/3/3 5/5/5
f 4/4/4 5/5/5 6/6/6
f 7/7/7 4/4/4 6/6/6
f 8/8/8 4/4/4 7/7/7
f 9/9/9 8/8/8 7/7/7
f 9/9/9 7/7/7 10/10/10
f 10/10/10 11/11/11 9/9/9
f 10/10/10 12/12/12 11/11/11
f 4/4/4 13/13/13 1/1/1
f 8/8/8 13/13/13 4/4/4
f 10/10/10 7/7/7 14/14/14
f 7/7/7 6/6/6 14/14/14
f 10/10/10 14/14/14 15/15/15
f 17/16/16 16/17/17 18/18/18
f 17/16/16 18/18/18 19/19/19
f 20/20/20 17/16/16 19/19/19
f 10/10/10 21/21/21 20/20/20
f 10/10/10 15/15/15 21/21/21
f 20/20/20 21/21/21 17/16/16
f 22/22/22 23/23/23 24/24/24
f 22/22/22 24/24/24 25/25/25
f 25/25/25 26/26/26 22/22/22
f 25/25/25 27/27/27 26/26/26
f 27/27/27 28/28/28 26/26/26
f 27/27/27 29/29/29 28/28/28
f 29/29/29 30/30/30 28/28/28
f 29/29/29 31/31/31 30/30/30
f 32/32/32 8/8/8 9/9/9
f 32/32/32 23/23/23 22/22/22
f 32/32/32 33/33/33 23/23/23
f 9/9/9 33/33/33 32/32/32
f 9/9/9 11/11/11 33/33/33
f 32/32/32 34/34/34 8/8/8
f 22/22/22 34/34/34 32/32/32
f 22/22/22 26/26/26 34/34/34
f 34/34/34 13/13/13 8/8/8
f 26/26/26 28/28/28 35/35/35
f 34/34/34 35/35/35 13/13/13
f 26/26/26 35/35/35 34/34/34
f 33/33/33 36/36/36 23/23/23
f 33/33/33 37/37/37 36/36/36
f 11/11/11 37/37/37 33/33/33
f 23/23/23 36/36/36 38/38/38
f 23/23/23 38/38/38 24/24/24
f 31/31/31 36/39/36 30/30/30
f 31/31/31 38/40/38 36/39/36
f 39/41/39 29/29/29 27/27/27
f 40/42/40 31/31/31 29/29/29
f 39/41/39 40/42/40 29/29/29
f 40/42/40 41/43/41 31/31/31
f 42/44/42 38/40/38 31/31/31
f 42/44/42 31/31/31 41/43/41
f 43/45/43 40/42/40 39/41/39
f 44/46/44 41/43/41 40/42/40
f 43/45/43 44/46/44 40/42/40
f 45/47/45 44/46/44 43/45/43
f 45/47/45 46/48/46 44/46/44
f 47/49/47 46/48/46 45/47/45
f 47/49/47 48/50/48 46/48/46
f 49/51/49 42/44/42 41/43/41
f 46/48/46 49/51/49 44/46/44
f 46/48/46 48/50/48 49/51/49
f 44/46/44 49/51/49 41/43/41
f 50/52/50 45/47/45 43/45/43
f 47/49/47 45/47/45 50/52/50
f 50/52/50 43/45/43 51/53/51
f 51/53/51 43/45/43 39/41/39
f 51/53/51 52/54/52 50/52/50
f 50/52/50 52/54/52 47/49/47
f 51/53/51 53/55/53 52/54/52
f 52/54/52 54/56/54 47/49/47
f 53/55/53 54/56/54 52/54/52
f 53/55/53 55/57/55 54/56/54
f 47/49/47 54/58/54 48/50/48
f 54/58/54 49/51/49 48/50/48
f 54/58/54 55/59/55 49/51/49
f 49/51/49 55/59/55 42/44/42
f 51/53/51 39/41/39 56/60/56
f 56/60/56 53/55/53 51/53/51
f 56/60/56 27/27/27 25/25/25
f 56/60/56 39/41/39 27/27/27
f 56/60/56 57/61/57 53/55/53
f 57/61/57 55/57/55 53/55/53
f 25/25/25 24/24/24 57/61/57
f 25/25/25 57/61/57 56/60/56
f 24/24/24 42/62/42 57/61/57
f 24/24/24 38/38/38 42/62/42
f 57/61/57 42/62/42 55/57/55
f 35/35/35 28/28/28 58/63/58
f 58/63/58 59/64/59 60/65/60
f 61/66/61 2/2/2 1/1/1
f 61/66/61 60/65/60 2/2/2
f 58/63/58 60/65/60 61/66/61
f 13/13/13 61/66/61 1/1/1
f 13/13/13 35/35/35 61/66/61
f 35/35/35 58/63/58 61/66/61
f 62/67/62 60/65/60 59/64/59
f 62/67/62 63/68/63 60/65/60
f 36/69/36 63/68/63 62/67/62
f 36/69/36 37/70/37 63/68/63
f 36/69/36 62/67/62 64/71/64
f 36/69/36 64/71/64 65/72/65
f 65/72/65 64/71/64 66/73/66
f 64/71/64 67/74/67 66/73/66
f 62/67/62 59/64/59 67/74/67
f 62/67/62 67/74/67 64/71/64
f 59/64/59 68/75/68 67/74/67
f 59/64/59 58/63/58 68/75/68
f 67/74/67 68/75/68 66/73/66
f 12/12/12 69/76/69 11/11/11
f 11/11/11 69/76/69 37/37/37
f 12/12/12 70/77/70 69/76/69
f 71/78/71 70/77/70 12/12/12
f 71/78/71 72/79/72 70/77/70
f 70/80/70 5/5/5 3/3/3
f 70/80/70 72/81/72 5/5/5
f 73/82/73 70/80/70 3/3/3
f 73/82/73 3/3/3 2/2/2
f 60/65/60 63/68/63 73/82/73
f 60/65/60 73/82/73 2/2/2
f 63/68/63 69/83/69 73/82/73
f 69/83/69 70/80/70 73/82/73
f 63/68/63 37/70/37 69/83/69
f 71/84/71 18/85/18 16/86/17
f 71/84/71 12/87/12 18/85/18
f 18/85/18 12/87/12 74/88/74
f 12/12/12 10/10/10 75/89/75
f 12/12/12 75/89/75 74/90/74
f 74/90/74 75/89/75 76/91/76
f 74/90/74 76/91/76 77/92/77
f 75/89/75 78/93/78 76/91/76
f 10/10/10 20/20/20 79/94/79
f 75/89/75 79/94/79 78/93/78
f 10/10/10 79/94/79 75/89/75
f 77/92/77 76/91/76 80/95/80
f 77/92/77 80/95/80 81/96/81
f 81/96/81 80/95/80 82/97/82
f 76/91/76 83/98/83 80/95/80
f 80/95/80 83/98/83 82/97/82
f 76/91/76 78/93/78 83/98/83
f 84/99/84 83/98/83 78/93/78
f 82/97/82 83/98/83 84/99/84
f 85/100/85 78/93/78 79/94/79
f 84/99/84 78/93/78 85/100/85
f 84/99/84 86/101/86 82/97/82
f 85/100/85 86/101/86 84/99/84
f 85/100/85 87/102/87 86/101/86
f 88/103/88 87/102/87 85/100/85
f 85/100/85 79/94/79 88/103/88
f 88/103/88 20/20/20 19/19/19
f 88/103/88 79/94/79 20/20/20
f 19/19/19 89/104/89 88/103/88
f 88/103/88 89/104/89 87/102/87
f 19/19/19 18/18/18 89/104/89
f 18/85/18 74/88/74 89/105/89
f 89/105/89 74/88/74 77/106/77
f 89/105/89 77/106/77 87/107/87
f 87/107/87 77/106/77 81/108/81
f 87/107/87 81/108/81 86/109/86
f 86/109/86 81/108/81 82/110/82
f 90/111/90 91/112/91 66/113/66
f 91/112/91 65/114/65 66/113/66
f 68/75/68 90/115/90 66/73/66
f 58/63/58 90/115/90 68/75/68
f 58/63/58 28/28/28 90/115/90
f 30/116/30 65/114/65 91/112/91
f 30/116/30 36/117/36 65/114/65
f 28/118/28 30/116/30 91/112/91
f 28/118/28 91/112/91 90/111/90
